<svg xmlns="http://www.w3.org/2000/svg" width="1200" height="675" viewBox="0 0 1200 675" role="img" aria-labelledby="title desc">
  <title id="title">make-ppt-from-source refined workflow visual</title>
  <desc id="desc">A refined blue-white presentation style workflow visual.</desc>
  <defs>
    <linearGradient id="bg" x1="0" y1="0" x2="1" y2="1">
      <stop offset="0" stop-color="#f8fbff"/>
      <stop offset="0.56" stop-color="#eef6ff"/>
      <stop offset="1" stop-color="#ffffff"/>
    </linearGradient>
    <linearGradient id="blue" x1="0" y1="0" x2="1" y2="1">
      <stop offset="0" stop-color="#0b3b91"/>
      <stop offset="1" stop-color="#1d7ff2"/>
    </linearGradient>
    <linearGradient id="cyan" x1="0" y1="0" x2="1" y2="1">
      <stop offset="0" stop-color="#e0f2fe"/>
      <stop offset="1" stop-color="#ffffff"/>
    </linearGradient>
    <filter id="shadow" x="-20%" y="-20%" width="140%" height="150%">
      <feDropShadow dx="0" dy="18" stdDeviation="16" flood-color="#0f172a" flood-opacity="0.14"/>
    </filter>
    <pattern id="grid" width="42" height="42" patternUnits="userSpaceOnUse">
      <path d="M42 0H0V42" fill="none" stroke="#bfdbfe" stroke-width="1" opacity="0.55"/>
    </pattern>
  </defs>
  <rect width="1200" height="675" fill="url(#bg)"/>
  <rect x="0" y="390" width="1200" height="285" fill="url(#grid)" opacity="0.55"/>
  <path d="M0 534 C120 482 206 510 330 456 C458 400 560 440 690 386 C826 330 964 380 1200 312 L1200 675 L0 675 Z" fill="#dbeafe" opacity="0.55"/>
  <path d="M0 596 C168 530 284 574 430 512 C568 454 712 506 846 442 C976 380 1058 424 1200 368 L1200 675 L0 675 Z" fill="#bfdbfe" opacity="0.48"/>
  <path d="M72 574 L188 486 L286 548 L382 456 L514 558 L632 478 L750 548 L872 432 L1034 548 L1138 468" fill="none" stroke="#ffffff" stroke-width="4" opacity="0.8"/>
  <text x="72" y="84" font-family="Microsoft YaHei, PingFang SC, Arial, sans-serif" font-size="38" font-weight="900" fill="#082f6f">make-ppt-from-source</text>
  <text x="72" y="122" font-family="Microsoft YaHei, PingFang SC, Arial, sans-serif" font-size="19" fill="#475569">从数据源到 PPTX、逐页 AI 绘图 Prompt 与配套演讲稿的一体化工作流</text>
  <g filter="url(#shadow)">
    <rect x="72" y="178" width="236" height="248" rx="22" fill="#ffffff"/>
    <text x="104" y="226" font-family="Microsoft YaHei, PingFang SC, Arial, sans-serif" font-size="22" font-weight="800" fill="#0b3b91">数据源</text>
    <rect x="104" y="258" width="78" height="106" rx="10" fill="#eff6ff" stroke="#93c5fd"/>
    <rect x="132" y="278" width="78" height="106" rx="10" fill="#ffffff" stroke="#60a5fa"/>
    <line x1="150" y1="302" x2="194" y2="302" stroke="#0b3b91" stroke-width="5" stroke-linecap="round"/>
    <line x1="150" y1="328" x2="204" y2="328" stroke="#93c5fd" stroke-width="5" stroke-linecap="round"/>
    <line x1="150" y1="354" x2="188" y2="354" stroke="#93c5fd" stroke-width="5" stroke-linecap="round"/>
    <text x="104" y="396" font-family="Microsoft YaHei, PingFang SC, Arial, sans-serif" font-size="15" fill="#64748b">DOCX / PDF / PPTX / 表格</text>
  </g>
  <g filter="url(#shadow)">
    <rect x="374" y="150" width="452" height="304" rx="26" fill="#ffffff"/>
    <rect x="398" y="178" width="404" height="58" rx="18" fill="url(#blue)"/>
    <text x="600" y="215" text-anchor="middle" font-family="Microsoft YaHei, PingFang SC, Arial, sans-serif" font-size="24" font-weight="900" fill="#ffffff">分析拆解与提示词生成</text>
    <g font-family="Microsoft YaHei, PingFang SC, Arial, sans-serif" font-size="16" fill="#0f172a">
      <rect x="418" y="272" width="152" height="54" rx="14" fill="#eff6ff" stroke="#93c5fd"/>
      <text x="494" y="306" text-anchor="middle">需求确认</text>
      <rect x="626" y="272" width="152" height="54" rx="14" fill="#ecfeff" stroke="#67e8f9"/>
      <text x="702" y="306" text-anchor="middle">页级规划</text>
      <rect x="418" y="354" width="152" height="54" rx="14" fill="#fff7ed" stroke="#fdba74"/>
      <text x="494" y="388" text-anchor="middle">完整提示词</text>
      <rect x="626" y="354" width="152" height="54" rx="14" fill="#f0fdf4" stroke="#86efac"/>
      <text x="702" y="388" text-anchor="middle">绘图Prompt</text>
    </g>
    <path d="M570 299h54M570 381h54M494 326v28M702 326v28" stroke="#94a3b8" stroke-width="4" stroke-linecap="round" stroke-dasharray="5 10"/>
  </g>
  <g filter="url(#shadow)">
    <rect x="892" y="178" width="236" height="248" rx="22" fill="#ffffff"/>
    <text x="924" y="226" font-family="Microsoft YaHei, PingFang SC, Arial, sans-serif" font-size="22" font-weight="800" fill="#0b3b91">最终交付</text>
    <rect x="924" y="260" width="152" height="86" rx="14" fill="url(#cyan)" stroke="#60a5fa"/>
    <rect x="942" y="282" width="112" height="12" rx="6" fill="#0b3b91"/>
    <rect x="942" y="308" width="86" height="10" rx="5" fill="#93c5fd"/>
    <rect x="942" y="330" width="102" height="10" rx="5" fill="#93c5fd"/>
    <rect x="928" y="374" width="64" height="36" rx="11" fill="#eff6ff"/>
    <rect x="1008" y="374" width="64" height="36" rx="11" fill="#fef2f2"/>
    <text x="960" y="397" text-anchor="middle" font-family="Arial" font-size="13" fill="#0b3b91">PPTX</text>
    <text x="1040" y="397" text-anchor="middle" font-family="Arial" font-size="13" fill="#b91c1c">Speech</text>
  </g>
  <path d="M318 300h44M838 300h44" stroke="#0b3b91" stroke-width="6" stroke-linecap="round" stroke-dasharray="8 14"/>
  <circle cx="340" cy="300" r="8" fill="#b91c1c"/>
  <circle cx="860" cy="300" r="8" fill="#b91c1c"/>
</svg>
