<svg xmlns="http://www.w3.org/2000/svg" width="1200" height="675" viewBox="0 0 1200 675" role="img" aria-labelledby="title desc">
  <title id="title">make-ppt-from-source workflow hero</title>
  <desc id="desc">A polished visual summary of the data source to PPT workflow.</desc>
  <defs>
    <linearGradient id="bg" x1="0" y1="0" x2="1" y2="1">
      <stop offset="0" stop-color="#eef6ff"/>
      <stop offset="0.52" stop-color="#f8fbff"/>
      <stop offset="1" stop-color="#fff7ed"/>
    </linearGradient>
    <linearGradient id="blue" x1="0" y1="0" x2="1" y2="1">
      <stop offset="0" stop-color="#2563eb"/>
      <stop offset="1" stop-color="#0ea5e9"/>
    </linearGradient>
    <linearGradient id="green" x1="0" y1="0" x2="1" y2="1">
      <stop offset="0" stop-color="#10b981"/>
      <stop offset="1" stop-color="#14b8a6"/>
    </linearGradient>
    <filter id="shadow" x="-20%" y="-20%" width="140%" height="140%">
      <feDropShadow dx="0" dy="18" stdDeviation="18" flood-color="#1f2937" flood-opacity="0.16"/>
    </filter>
  </defs>
  <rect width="1200" height="675" fill="url(#bg)"/>
  <circle cx="1040" cy="110" r="120" fill="#fed7aa" opacity="0.35"/>
  <circle cx="130" cy="560" r="160" fill="#bfdbfe" opacity="0.45"/>
  <text x="72" y="94" font-family="Microsoft YaHei, PingFang SC, Arial, sans-serif" font-size="40" font-weight="800" fill="#0f172a">make-ppt-from-source</text>
  <text x="72" y="136" font-family="Microsoft YaHei, PingFang SC, Arial, sans-serif" font-size="20" fill="#475569">从数据源到答辩 PPT、逐页 AI 绘图 Prompt 与配套演讲稿的一体化工作流</text>
  <g filter="url(#shadow)">
    <rect x="80" y="214" width="190" height="190" rx="22" fill="#ffffff"/>
    <rect x="112" y="246" width="92" height="114" rx="10" fill="#dbeafe"/>
    <rect x="132" y="270" width="92" height="114" rx="10" fill="#eff6ff" stroke="#60a5fa"/>
    <line x1="148" y1="296" x2="206" y2="296" stroke="#2563eb" stroke-width="5" stroke-linecap="round"/>
    <line x1="148" y1="322" x2="196" y2="322" stroke="#93c5fd" stroke-width="5" stroke-linecap="round"/>
    <line x1="148" y1="348" x2="212" y2="348" stroke="#93c5fd" stroke-width="5" stroke-linecap="round"/>
    <text x="175" y="442" text-anchor="middle" font-family="Microsoft YaHei, PingFang SC, Arial, sans-serif" font-size="18" font-weight="700" fill="#0f172a">上传数据源</text>
  </g>
  <g filter="url(#shadow)">
    <rect x="330" y="214" width="190" height="190" rx="22" fill="#ffffff"/>
    <circle cx="425" cy="302" r="52" fill="url(#blue)" opacity="0.95"/>
    <path d="M400 302h50M425 277v50" stroke="#fff" stroke-width="10" stroke-linecap="round"/>
    <path d="M370 365c35-34 76-34 110 0" fill="none" stroke="#bae6fd" stroke-width="10" stroke-linecap="round"/>
    <text x="425" y="442" text-anchor="middle" font-family="Microsoft YaHei, PingFang SC, Arial, sans-serif" font-size="18" font-weight="700" fill="#0f172a">分析拆解</text>
  </g>
  <g filter="url(#shadow)">
    <rect x="580" y="214" width="190" height="190" rx="22" fill="#ffffff"/>
    <rect x="620" y="250" width="110" height="84" rx="12" fill="#f0fdf4" stroke="#34d399"/>
    <rect x="636" y="270" width="78" height="8" rx="4" fill="#10b981"/>
    <rect x="636" y="292" width="56" height="8" rx="4" fill="#99f6e4"/>
    <rect x="636" y="314" width="68" height="8" rx="4" fill="#99f6e4"/>
    <path d="M615 360h120" stroke="url(#green)" stroke-width="12" stroke-linecap="round"/>
    <text x="675" y="442" text-anchor="middle" font-family="Microsoft YaHei, PingFang SC, Arial, sans-serif" font-size="18" font-weight="700" fill="#0f172a">生成提示词</text>
  </g>
  <g filter="url(#shadow)">
    <rect x="830" y="214" width="190" height="190" rx="22" fill="#ffffff"/>
    <rect x="870" y="252" width="110" height="74" rx="12" fill="#fff7ed" stroke="#fb923c"/>
    <circle cx="900" cy="284" r="14" fill="#f97316"/>
    <path d="M876 322l34-28 24 18 20-22 24 32" fill="none" stroke="#fdba74" stroke-width="7" stroke-linejoin="round"/>
    <rect x="890" y="344" width="70" height="34" rx="10" fill="#ffedd5"/>
    <text x="925" y="442" text-anchor="middle" font-family="Microsoft YaHei, PingFang SC, Arial, sans-serif" font-size="18" font-weight="700" fill="#0f172a">逐页绘图</text>
  </g>
  <path d="M278 308h44M528 308h44M778 308h44" stroke="#94a3b8" stroke-width="6" stroke-linecap="round" stroke-dasharray="4 14"/>
  <g filter="url(#shadow)">
    <rect x="286" y="512" width="628" height="76" rx="22" fill="#0f172a"/>
    <text x="600" y="545" text-anchor="middle" font-family="Microsoft YaHei, PingFang SC, Arial, sans-serif" font-size="22" font-weight="800" fill="#ffffff">最终交付：PPTX + 两份提示词 + 逐页图片 + 演讲稿</text>
    <text x="600" y="573" text-anchor="middle" font-family="Microsoft YaHei, PingFang SC, Arial, sans-serif" font-size="15" fill="#cbd5e1">适用于项目申报、课题答辩、路演汇报和技术方案说明</text>
  </g>
</svg>
